<svg xmlns="http://www.w3.org/2000/svg" style="overflow: visible;" viewBox="0 0 512 512" data-svgdocument="" id="_3qcLrDpQ6JrxcWAie__xY" class="fl-svgdocument" x="0" y="0" xmlns:xlink="http://www.w3.org/1999/xlink" overflow="hidden" data-bbox="47.68279935562094 197.07670999322602 305.06463042740023 117.84656568080936"><defs id="_Mz_1Sy8Z-r4V5NhIO4399" transform="matrix(0.6453709006309509, 0, 0, 0.6453709006309509, -19.261096954345703, 186.82325744628906)" data-uid="o_enf2h1e03_4"></defs><path text="code:" text-anchor="start" font-size="100" letter-spacing="0" side="left" offset="0" dx="0" dy="0" space="preserve" href="" font-family="Bungee" font-scale="contain" transform="matrix(0.8750885128974915, 0, 0, 0.8750885128974915, 217.84375677738444, 251.29356325511753)" x="0" y="0" fill="#ddd" data-fl-textpath="" id="_dbHH01i2xlTP3TKjYS3EL" data-uid="o_enf2h1e03_5" d="M 54.8 0L 54.8 0L 30.4 0Q 17.9 0  11.85-5Q 5.8-10  5.8-20.4L 5.8-20.4L 5.8-51.5Q 5.8-61.9  11.85-66.95Q 17.9-72  30.4-72L 30.4-72L 54.8-72Q 56.7-72  57.55-71.15Q 58.4-70.3  58.4-68.4L 58.4-68.4L 58.4-56.3Q 58.4-54.4  57.55-53.55Q 56.7-52.7  54.8-52.7L 54.8-52.7L 34.7-52.7Q 31.6-52.7  30.1-51.45Q 28.6-50.2  28.6-47.7L 28.6-47.7L 28.6-23.9Q 28.6-21.4  30.1-20.25Q 31.6-19.1  34.7-19.1L 34.7-19.1L 54.8-19.1Q 56.7-19.1  57.55-18.25Q 58.4-17.4  58.4-15.5L 58.4-15.5L 58.4-3.6Q 58.4-1.7  57.55-0.85Q 56.7 0  54.8 0ZM 130.20000000000002-53L 130.20000000000002-18.9Q 130.20000000000002-14.3  128.85-10.55Q 127.5-6.8  124.05000000000001-4.15Q 120.6-1.5  114.55000000000001 0Q 108.5 1.5  99.2 1.5L 99.2 1.5Q 89.9 1.5  83.80000000000001 0Q 77.7-1.5  74.25-4.15Q 70.80000000000001-6.8  69.45-10.55Q 68.10000000000001-14.3  68.10000000000001-18.9L 68.10000000000001-18.9L 68.10000000000001-53Q 68.10000000000001-57.6  69.45-61.35Q 70.80000000000001-65.1  74.25-67.8Q 77.7-70.5  83.80000000000001-72Q 89.9-73.5  99.2-73.5L 99.2-73.5Q 108.5-73.5  114.55000000000001-72Q 120.6-70.5  124.05000000000001-67.8Q 127.5-65.1  128.85-61.35Q 130.20000000000002-57.6  130.20000000000002-53L 130.20000000000002-53ZM 90.80000000000001-49.4L 90.80000000000001-22.5Q 90.80000000000001-20.5  92.30000000000001-19.15Q 93.80000000000001-17.8  99.2-17.8L 99.2-17.8Q 104.6-17.8  106.1-19.15Q 107.6-20.5  107.6-22.5L 107.6-22.5L 107.6-49.4Q 107.6-51.3  106.1-52.65Q 104.6-54  99.2-54L 99.2-54Q 93.80000000000001-54  92.30000000000001-52.65Q 90.80000000000001-51.3  90.80000000000001-49.4L 90.80000000000001-49.4ZM 180.2 0L 180.2 0L 146.5 0Q 144.6 0  143.75-0.85Q 142.9-1.7  142.9-3.6L 142.9-3.6L 142.9-68.4Q 142.9-70.3  143.75-71.15Q 144.6-72  146.5-72L 146.5-72L 180.2-72Q 192.7-72  198.75-67Q 204.8-62  204.8-51.6L 204.8-51.6L 204.8-20.4Q 204.8-10  198.75-5Q 192.7 0  180.2 0ZM 177.5-52.9L 165.6-52.9L 165.6-18.9L 177.5-18.9Q 179.9-18.9  181.05-20.1Q 182.2-21.3  182.2-23.8L 182.2-23.8L 182.2-48.1Q 182.2-50.6  181.05-51.75Q 179.9-52.9  177.5-52.9L 177.5-52.9ZM 267.5 0L 267.5 0L 221.10000000000002 0Q 219.20000000000002 0  218.35000000000002-0.85Q 217.50000000000003-1.7  217.50000000000003-3.6L 217.50000000000003-3.6L 217.50000000000003-68.4Q 217.50000000000003-70.3  218.35000000000002-71.15Q 219.20000000000002-72  221.10000000000002-72L 221.10000000000002-72L 267.5-72Q 269.40000000000003-72  270.25-71.15Q 271.1-70.3  271.1-68.4L 271.1-68.4L 271.1-56.7Q 271.1-54.8  270.25-53.95Q 269.40000000000003-53.1  267.5-53.1L 267.5-53.1L 239.90000000000003-53.1L 239.90000000000003-45.4L 259.40000000000003-45.4Q 261.3-45.4  262.15000000000003-44.55Q 263-43.7  263-41.8L 263-41.8L 263-31.1Q 263-29.2  262.15000000000003-28.35Q 261.3-27.5  259.40000000000003-27.5L 259.40000000000003-27.5L 239.90000000000003-27.5L 239.90000000000003-18.9L 267.5-18.9Q 269.40000000000003-18.9  270.25-18.05Q 271.1-17.2  271.1-15.3L 271.1-15.3L 271.1-3.6Q 271.1-1.7  270.25-0.85Q 269.40000000000003 0  267.5 0ZM 305.3 0L 305.3 0L 285.1 0Q 283.2 0  282.35-0.85Q 281.5-1.7  281.5-3.6L 281.5-3.6L 281.5-23.9Q 281.5-25.8  282.35-26.65Q 283.2-27.5  285.1-27.5L 285.1-27.5L 305.3-27.5Q 307.2-27.5  308.05-26.65Q 308.9-25.8  308.9-23.9L 308.9-23.9L 308.9-3.6Q 308.9-1.7  308.05-0.85Q 307.2 0  305.3 0ZM 305.3-35.5L 305.3-35.5L 285.1-35.5Q 283.2-35.5  282.35-36.35Q 281.5-37.2  281.5-39.1L 281.5-39.1L 281.5-59.4Q 281.5-61.3  282.35-62.15Q 283.2-63  285.1-63L 285.1-63L 305.3-63Q 307.2-63  308.05-62.15Q 308.9-61.3  308.9-59.4L 308.9-59.4L 308.9-39.1Q 308.9-37.2  308.05-36.35Q 307.2-35.5  305.3-35.5Z"></path><path text="one" text-anchor="start" font-size="100" letter-spacing="0" side="left" offset="0" dx="0" dy="0" space="preserve" href="" font-family="Bungee" font-scale="contain" transform="matrix(0.8750885128974915, 0, 0, 0.8750885128974915, 217.84326849613444, 327.8605188215238)" x="0" y="0" fill="#d41717" data-fl-textpath="" id="_LT9703mBXXvD2CqRzN1-_" data-uid="o_enf2h1e03_6" d="M 67.9-53L 67.9-18.9Q 67.9-14.3  66.55-10.55Q 65.2-6.8  61.75-4.15Q 58.3-1.5  52.25 0Q 46.2 1.5  36.9 1.5L 36.9 1.5Q 27.6 1.5  21.5 0Q 15.4-1.5  11.95-4.15Q 8.5-6.8  7.15-10.55Q 5.8-14.3  5.8-18.9L 5.8-18.9L 5.8-53Q 5.8-57.6  7.15-61.35Q 8.5-65.1  11.95-67.8Q 15.4-70.5  21.5-72Q 27.6-73.5  36.9-73.5L 36.9-73.5Q 46.2-73.5  52.25-72Q 58.3-70.5  61.75-67.8Q 65.2-65.1  66.55-61.35Q 67.9-57.6  67.9-53L 67.9-53ZM 28.5-49.4L 28.5-22.5Q 28.5-20.5  30-19.15Q 31.5-17.8  36.9-17.8L 36.9-17.8Q 42.3-17.8  43.8-19.15Q 45.3-20.5  45.3-22.5L 45.3-22.5L 45.3-49.4Q 45.3-51.3  43.8-52.65Q 42.3-54  36.9-54L 36.9-54Q 31.5-54  30-52.65Q 28.5-51.3  28.5-49.4L 28.5-49.4ZM 99.19999999999999 0L 99.19999999999999 0L 84.19999999999999 0Q 82.29999999999998 0  81.44999999999999-0.85Q 80.6-1.7  80.6-3.6L 80.6-3.6L 80.6-68.4Q 80.6-70.3  81.44999999999999-71.15Q 82.29999999999998-72  84.19999999999999-72L 84.19999999999999-72L 94.6-72Q 96.49999999999999-72  97.85-71.4Q 99.19999999999999-70.8  100.49999999999999-69.3L 100.49999999999999-69.3L 119.89999999999999-47.1L 119.89999999999999-68.4Q 119.89999999999999-70.3  120.74999999999999-71.15Q 121.6-72  123.49999999999999-72L 123.49999999999999-72L 138.5-72Q 140.39999999999998-72  141.25-71.15Q 142.1-70.3  142.1-68.4L 142.1-68.4L 142.1-3.6Q 142.1-1.7  141.25-0.85Q 140.39999999999998 0  138.5 0L 138.5 0L 123.49999999999999 0Q 121.6 0  120.74999999999999-0.85Q 119.89999999999999-1.7  119.89999999999999-3.6L 119.89999999999999-3.6L 119.89999999999999-15.9L 102.79999999999998-36.6L 102.79999999999998-3.6Q 102.79999999999998-1.7  101.94999999999999-0.85Q 101.1 0  99.19999999999999 0ZM 205.9 0L 205.9 0L 159.5 0Q 157.6 0  156.75-0.85Q 155.9-1.7  155.9-3.6L 155.9-3.6L 155.9-68.4Q 155.9-70.3  156.75-71.15Q 157.6-72  159.5-72L 159.5-72L 205.9-72Q 207.8-72  208.65-71.15Q 209.5-70.3  209.5-68.4L 209.5-68.4L 209.5-56.7Q 209.5-54.8  208.65-53.95Q 207.8-53.1  205.9-53.1L 205.9-53.1L 178.3-53.1L 178.3-45.4L 197.8-45.4Q 199.7-45.4  200.55-44.55Q 201.4-43.7  201.4-41.8L 201.4-41.8L 201.4-31.1Q 201.4-29.2  200.55-28.35Q 199.7-27.5  197.8-27.5L 197.8-27.5L 178.3-27.5L 178.3-18.9L 205.9-18.9Q 207.8-18.9  208.65-18.05Q 209.5-17.2  209.5-15.3L 209.5-15.3L 209.5-3.6Q 209.5-1.7  208.65-0.85Q 207.8 0  205.9 0Z"></path><g transform="matrix(1.522028923034668, 0, 0, 1.522028923034668, -48.73319520320638, -144.68060361499965)" data-uid="o_enf2h1e03_7"><path id="_k08helhpR_Dlyy1GW_-pD" d="M88.09.74H42.29a11.42,11.42,0,0,0-11.41,11.4V31.86H11.06A10.57,10.57,0,0,0,.5,42.42V75A10.57,10.57,0,0,0,11.06,85.6h4.66V96.76A2.5,2.5,0,0,0,20,98.53l13-12.93H51.59A10.57,10.57,0,0,0,62.15,75V59.59H64L78.42,73.95a2.5,2.5,0,0,0,4.27-1.77V59.59h5.41A11.42,11.42,0,0,0,99.5,48.18v-36A11.42,11.42,0,0,0,88.09.74ZM57.15,75a5.57,5.57,0,0,1-5.56,5.56H31.91a2.5,2.5,0,0,0-1.77.73l-9.42,9.4V83.1a2.5,2.5,0,0,0-2.5-2.5H11.06A5.57,5.57,0,0,1,5.5,75V42.42a5.57,5.57,0,0,1,5.56-5.56H30.89V48.18A11.42,11.42,0,0,0,42.29,59.59H57.15ZM94.5,48.18a6.41,6.41,0,0,1-6.41,6.41H80.18a2.5,2.5,0,0,0-2.5,2.5v9.06L66.83,55.32a2.5,2.5,0,0,0-1.77-.73H42.29a6.41,6.41,0,0,1-6.41-6.41v-36a6.41,6.41,0,0,1,6.41-6.4h45.8a6.41,6.41,0,0,1,6.41,6.4Z" stroke="none" fill="#ddd" transform="matrix(1.1839749813079834, 0, 0, 1.1839749813079834, 47.6828498840332, 196.7925567626953)" stroke-width="1" data-uid="o_enf2h1e03_8"></path></g><g fill="#d41717" transform="matrix(0.7444379329681396, 0, 0, 0.7444379329681396, 103.57635412845866, 171.94572389964878)" data-uid="o_enf2h1e03_9"><path d="M90.5,10.1H9.5c-3.9,0-7,3.2-7,7v65.8c0,3.9,3.2,7,7,7h80.9c3.9,0,7-3.2,7-7V17.1C97.5,13.2,94.3,10.1,90.5,10.1z      M32.5,17.3c1.7,0,3,1.4,3,3c0,1.7-1.4,3-3,3c-1.7,0-3-1.4-3-3C29.5,18.6,30.8,17.3,32.5,17.3z M23.3,17.3c1.7,0,3,1.4,3,3     c0,1.7-1.4,3-3,3c-1.7,0-3-1.4-3-3C20.3,18.6,21.7,17.3,23.3,17.3z M14.1,17.3c1.7,0,3,1.4,3,3c0,1.7-1.4,3-3,3c-1.7,0-3-1.4-3-3     C11.1,18.6,12.5,17.3,14.1,17.3z M91,82.9c0,0.3-0.2,0.5-0.5,0.5H9.5c-0.3,0-0.5-0.2-0.5-0.5V30.6h82V82.9z" transform="matrix(1, 0, 0, 1, 0, 0)" fill="#d41717" data-uid="o_enf2h1e03_10"></path><path d="M31.8,71.7c0.6,0.6,1.4,0.6,2,0l3.6-3.7c0.6-0.6,0.6-1.5,0-2l-9-9l9-9c0.6-0.6,0.6-1.5,0-2l-3.6-3.7     c-0.6-0.6-1.4-0.6-2,0L18.1,56c-0.6,0.6-0.6,1.5,0,2L31.8,71.7z" transform="matrix(1, 0, 0, 1, 0, 0)" fill="#d41717" data-uid="o_enf2h1e03_11"></path><path d="M62.5,68.1l3.6,3.7c0.6,0.6,1.5,0.6,2,0L81.9,58c0.6-0.6,0.6-1.5,0-2L68.2,42.3c-0.6-0.6-1.4-0.6-2,0L62.5,46     c-0.6,0.6-0.6,1.5,0,2l9,9l-9,9C62,66.6,62,67.5,62.5,68.1z" transform="matrix(1, 0, 0, 1, 0, 0)" fill="#d41717" data-uid="o_enf2h1e03_12"></path><path d="M42.6,73.7H47c0.6,0,1.1-0.4,1.3-1l10.5-30.4c0.3-0.9-0.4-1.9-1.3-1.9H53c-0.6,0-1.1,0.4-1.3,1L41.2,71.8     C40.9,72.7,41.6,73.7,42.6,73.7z" transform="matrix(1, 0, 0, 1, 0, 0)" fill="#d41717" data-uid="o_enf2h1e03_13"></path></g><path text="1" fill="#ddd" space="preserve" text-anchor="middle" offset="0.5" font-scale="contain" font-size="48" font-family="Bungee" transform="matrix(1.522028923034668, 0, 0, 1.522028923034668, 79.29809485111491, 286.9059289777738)" font-weight="400" font-style="normal" data-uid="o_enf2h1e03_14" data-fl-textpath="" d="M 10.826 0L 10.826 0L-10.393999999999998 0Q-11.303999999999998 0 -11.713999999999999-0.41Q-12.123999999999999-0.82 -12.123999999999999-1.73L-12.123999999999999-1.73L-12.123999999999999-7.54Q-12.123999999999999-8.45 -11.713999999999999-8.86Q-11.303999999999998-9.26 -10.393999999999998-9.26L-10.393999999999998-9.26L-5.013999999999999-9.26L-5.013999999999999-25.3L-9.434-25.3Q-10.344-25.3 -10.754-25.7Q-11.164-26.11 -11.164-27.02L-11.164-27.02L-11.164-32.83Q-11.164-33.74 -10.754-34.15Q-10.344-34.56 -9.434-34.56L-9.434-34.56L 4.486000000000001-34.56Q 5.396000000000001-34.56  5.806000000000001-34.15Q 6.216000000000001-33.74  6.216000000000001-32.83L 6.216000000000001-32.83L 6.216000000000001-9.26L 10.826-9.26Q 11.736-9.26  12.146-8.86Q 12.556000000000001-8.45  12.556000000000001-7.54L 12.556000000000001-7.54L 12.556000000000001-1.73Q 12.556000000000001-0.82  12.146-0.41Q 11.736 0  10.826 0Z"></path></svg>